HIERARCHY
ROOT __0
{
	OFFSET 0.0 0.0 0.0
	CHANNELS 0
	JOINT Bone
	{
		OFFSET -0.441137 0.000000 -0.879299
		CHANNELS 6 Xposition Yposition Zposition Xrotation Yrotation Zrotation
		JOINT Bone.001
		{
			OFFSET -1.044118 0.000000 2.758596
			CHANNELS 3 Xrotation Yrotation Zrotation
			JOINT Bone.002
			{
				OFFSET -0.197107 -0.120437 2.846406
				CHANNELS 3 Xrotation Yrotation Zrotation
				JOINT Bone.003
				{
					OFFSET -0.841422 0.120437 2.826213
					CHANNELS 3 Xrotation Yrotation Zrotation
					JOINT Bone.004
					{
						OFFSET -0.201381 -0.000000 2.503220
						CHANNELS 3 Xrotation Yrotation Zrotation
						JOINT Bone.005
						{
							OFFSET 0.778249 -0.000000 4.437727
							CHANNELS 6 Xposition Yposition Zposition Xrotation Yrotation Zrotation
							JOINT Bone.006
							{
								OFFSET 0.387982 0.000000 0.969224
								CHANNELS 3 Xrotation Yrotation Zrotation
								JOINT Bone.007
								{
									OFFSET 0.129733 -0.000000 2.383711
									CHANNELS 3 Xrotation Yrotation Zrotation
									JOINT Bone.007_end
									{
										OFFSET 0.851824 -0.000000 3.284870
										CHANNELS 3 Xrotation Yrotation Zrotation
										End Site
										{
											OFFSET 0.851824 -0.000000 3.284870
										}
									}
								}
							}
						}
						JOINT lats.l
						{
							OFFSET 0.778249 -0.000000 4.437727
							CHANNELS 6 Xposition Yposition Zposition Xrotation Yrotation Zrotation
							JOINT shoulder.l
							{
								OFFSET 0.479078 4.011610 -1.588903
								CHANNELS 3 Xrotation Yrotation Zrotation
								JOINT upper_arm.l
								{
									OFFSET -0.278611 1.947668 -1.744180
									CHANNELS 3 Xrotation Yrotation Zrotation
									JOINT forarm.l
									{
										OFFSET -0.656402 2.906964 -5.465096
										CHANNELS 3 Xrotation Yrotation Zrotation
										JOINT hand_1.l
										{
											OFFSET 1.213382 3.372078 -5.261601
											CHANNELS 3 Xrotation Yrotation Zrotation
											JOINT finger_1_1.l
											{
												OFFSET 1.915073 -0.154698 -2.425662
												CHANNELS 3 Xrotation Yrotation Zrotation
												JOINT finger_1_2.l
												{
													OFFSET 0.265828 0.018154 -0.982053
													CHANNELS 3 Xrotation Yrotation Zrotation
													JOINT finger_1_2.l_end
													{
														OFFSET 0.259668 -0.058760 -0.818377
														CHANNELS 3 Xrotation Yrotation Zrotation
														End Site
														{
															OFFSET 0.259668 -0.058760 -0.818377
														}
													}
												}
											}
										}
										JOINT hand_2.l
										{
											OFFSET 1.213382 3.372078 -5.261601
											CHANNELS 3 Xrotation Yrotation Zrotation
											JOINT finger_2_1.l
											{
												OFFSET 1.082807 1.055983 -3.153127
												CHANNELS 3 Xrotation Yrotation Zrotation
												JOINT finger_2_2.l
												{
													OFFSET 0.303461 0.229445 -0.943015
													CHANNELS 3 Xrotation Yrotation Zrotation
													JOINT finger_2_3.l
													{
														OFFSET 0.164459 -0.032780 -0.944187
														CHANNELS 3 Xrotation Yrotation Zrotation
														JOINT finger_2_3.l_end
														{
															OFFSET 0.124730 -0.053766 -0.660824
															CHANNELS 3 Xrotation Yrotation Zrotation
															End Site
															{
																OFFSET 0.124730 -0.053766 -0.660825
															}
														}
													}
												}
											}
										}
										JOINT hand_3.l
										{
											OFFSET 1.213382 3.372078 -5.261601
											CHANNELS 3 Xrotation Yrotation Zrotation
											JOINT finger_3_1.l
											{
												OFFSET 0.438745 1.366320 -3.503445
												CHANNELS 3 Xrotation Yrotation Zrotation
												JOINT finger_3_2.l
												{
													OFFSET 0.039193 0.200943 -0.808669
													CHANNELS 3 Xrotation Yrotation Zrotation
													JOINT finger_3_3.l
													{
														OFFSET 0.045546 0.076140 -0.989924
														CHANNELS 3 Xrotation Yrotation Zrotation
														JOINT finger_3_3.l_end
														{
															OFFSET -0.026910 0.082433 -0.590995
															CHANNELS 3 Xrotation Yrotation Zrotation
															End Site
															{
																OFFSET -0.026910 0.082433 -0.590995
															}
														}
													}
												}
											}
										}
										JOINT hand_4.l
										{
											OFFSET 1.213382 3.372078 -5.261601
											CHANNELS 3 Xrotation Yrotation Zrotation
											JOINT finger_4_1.l
											{
												OFFSET -0.299673 1.339034 -3.150754
												CHANNELS 3 Xrotation Yrotation Zrotation
												JOINT finger_4_2.l
												{
													OFFSET -0.040232 0.259658 -0.991301
													CHANNELS 3 Xrotation Yrotation Zrotation
													JOINT finger_4_3.l
													{
														OFFSET -0.049955 -0.074366 -0.704639
														CHANNELS 3 Xrotation Yrotation Zrotation
														JOINT finger_4_3.l_end
														{
															OFFSET -0.038561 0.010272 -0.631543
															CHANNELS 3 Xrotation Yrotation Zrotation
															End Site
															{
																OFFSET -0.038561 0.010272 -0.631544
															}
														}
													}
												}
											}
										}
										JOINT hand_5.l
										{
											OFFSET 1.213382 3.372078 -5.261601
											CHANNELS 3 Xrotation Yrotation Zrotation
											JOINT finger_5_1.l
											{
												OFFSET -0.897300 1.214401 -3.085588
												CHANNELS 3 Xrotation Yrotation Zrotation
												JOINT finger_5_2.l
												{
													OFFSET -0.175868 0.027259 -0.471411
													CHANNELS 3 Xrotation Yrotation Zrotation
													JOINT finger_5_3.l
													{
														OFFSET -0.183997 -0.195309 -0.687122
														CHANNELS 3 Xrotation Yrotation Zrotation
														JOINT finger_5_3.l_end
														{
															OFFSET -0.109424 -0.138382 -0.509002
															CHANNELS 3 Xrotation Yrotation Zrotation
															End Site
															{
																OFFSET -0.109424 -0.138382 -0.509002
															}
														}
													}
												}
											}
										}
									}
								}
							}
						}
						JOINT lats.r
						{
							OFFSET 0.787371 0.000134 4.437727
							CHANNELS 6 Xposition Yposition Zposition Xrotation Yrotation Zrotation
							JOINT shoulder.r
							{
								OFFSET 0.465146 -4.086555 -1.588903
								CHANNELS 3 Xrotation Yrotation Zrotation
								JOINT upper_arm.r
								{
									OFFSET -0.284825 -1.931523 -1.744180
									CHANNELS 3 Xrotation Yrotation Zrotation
									JOINT forarm.r
									{
										OFFSET -0.654372 -2.870988 -5.465096
										CHANNELS 3 Xrotation Yrotation Zrotation
										JOINT hand_1.r
										{
											OFFSET 0.752152 -3.427905 -5.261599
											CHANNELS 3 Xrotation Yrotation Zrotation
											JOINT finger_1_1.r
											{
												OFFSET 1.880342 0.268991 -2.425664
												CHANNELS 3 Xrotation Yrotation Zrotation
												JOINT finger_1_2.r
												{
													OFFSET 0.412765 -0.031263 -0.982053
													CHANNELS 3 Xrotation Yrotation Zrotation
													JOINT finger_1_2.r_end
													{
														OFFSET 0.265487 -0.028934 -0.818377
														CHANNELS 3 Xrotation Yrotation Zrotation
														End Site
														{
															OFFSET 0.265487 -0.028934 -0.818377
														}
													}
												}
											}
										}
										JOINT hand_2.r
										{
											OFFSET 0.752152 -3.427905 -5.261599
											CHANNELS 3 Xrotation Yrotation Zrotation
											JOINT finger_2_1.r
											{
												OFFSET 1.098547 -1.108187 -3.153125
												CHANNELS 3 Xrotation Yrotation Zrotation
												JOINT finger_2_2.r
												{
													OFFSET 0.291755 0.021010 -0.943020
													CHANNELS 3 Xrotation Yrotation Zrotation
													JOINT finger_2_3.r
													{
														OFFSET 0.186568 0.006100 -0.944185
														CHANNELS 3 Xrotation Yrotation Zrotation
														JOINT finger_2_3.r_end
														{
															OFFSET 0.133039 -0.006334 -0.660824
															CHANNELS 3 Xrotation Yrotation Zrotation
															End Site
															{
																OFFSET 0.133039 -0.006334 -0.660825
															}
														}
													}
												}
											}
										}
										JOINT hand_3.r
										{
											OFFSET 0.752152 -3.427905 -5.261599
											CHANNELS 3 Xrotation Yrotation Zrotation
											JOINT finger_3_1.r
											{
												OFFSET 0.373696 -1.343682 -3.332383
												CHANNELS 3 Xrotation Yrotation Zrotation
												JOINT finger_3_2.r
												{
													OFFSET 0.085230 -0.157215 -0.979734
													CHANNELS 3 Xrotation Yrotation Zrotation
													JOINT finger_3_3.r
													{
														OFFSET 0.018107 -0.037604 -0.989924
														CHANNELS 3 Xrotation Yrotation Zrotation
														JOINT finger_3_3.r_end
														{
															OFFSET 0.010870 -0.087893 -0.590995
															CHANNELS 3 Xrotation Yrotation Zrotation
															End Site
															{
																OFFSET 0.010870 -0.087893 -0.590994
															}
														}
													}
												}
											}
										}
										JOINT hand_4.r
										{
											OFFSET 0.752152 -3.427905 -5.261599
											CHANNELS 3 Xrotation Yrotation Zrotation
											JOINT finger_4_1.r
											{
												OFFSET -0.266866 -1.284353 -3.150754
												CHANNELS 3 Xrotation Yrotation Zrotation
												JOINT finger_4_2.r
												{
													OFFSET -0.081403 -0.106487 -0.991301
													CHANNELS 3 Xrotation Yrotation Zrotation
													JOINT finger_4_3.r
													{
														OFFSET -0.046220 0.038109 -0.704639
														CHANNELS 3 Xrotation Yrotation Zrotation
														JOINT finger_4_3.r_end
														{
															OFFSET -0.054081 -0.011491 -0.631543
															CHANNELS 3 Xrotation Yrotation Zrotation
															End Site
															{
																OFFSET -0.054081 -0.011491 -0.631543
															}
														}
													}
												}
											}
										}
										JOINT hand_5.r
										{
											OFFSET 0.752152 -3.427905 -5.261599
											CHANNELS 3 Xrotation Yrotation Zrotation
											JOINT finger_5_1.r
											{
												OFFSET -0.929662 -1.118169 -3.085588
												CHANNELS 3 Xrotation Yrotation Zrotation
												JOINT finger_5_2.r
												{
													OFFSET -0.166172 0.015477 -0.471413
													CHANNELS 3 Xrotation Yrotation Zrotation
													JOINT finger_5_3.r
													{
														OFFSET -0.186638 0.183818 -0.687119
														CHANNELS 3 Xrotation Yrotation Zrotation
														JOINT finger_5_3.r_end
														{
															OFFSET -0.064874 0.172217 -0.509002
															CHANNELS 3 Xrotation Yrotation Zrotation
															End Site
															{
																OFFSET -0.064874 0.172217 -0.509002
															}
														}
													}
												}
											}
										}
									}
								}
							}
						}
					}
				}
			}
		}
	}
	JOINT hip.l
	{
		OFFSET -0.441137 0.000000 -0.879299
		CHANNELS 6 Xposition Yposition Zposition Xrotation Yrotation Zrotation
		JOINT upper_leg.l
		{
			OFFSET 0.314229 2.757148 -1.947668
			CHANNELS 3 Xrotation Yrotation Zrotation
			JOINT lower_leg.l
			{
				OFFSET -1.127799 1.126559 -10.151125
				CHANNELS 3 Xrotation Yrotation Zrotation
				JOINT foot_1.l
				{
					OFFSET -0.944283 0.488371 -12.211979
					CHANNELS 3 Xrotation Yrotation Zrotation
					JOINT foot_2.l
					{
						OFFSET 1.946432 0.043195 -1.464783
						CHANNELS 3 Xrotation Yrotation Zrotation
						JOINT foot_2.l_end
						{
							OFFSET 2.546019 0.158223 -0.481493
							CHANNELS 3 Xrotation Yrotation Zrotation
							End Site
							{
								OFFSET 2.546019 0.158223 -0.481493
							}
						}
					}
				}
			}
		}
	}
	JOINT hip.r
	{
		OFFSET -0.435242 0.002287 -0.879299
		CHANNELS 6 Xposition Yposition Zposition Xrotation Yrotation Zrotation
		JOINT upper_leg.r
		{
			OFFSET 0.304085 -2.902024 -1.947668
			CHANNELS 3 Xrotation Yrotation Zrotation
			JOINT lower_leg.r
			{
				OFFSET -1.129197 -1.069468 -10.151123
				CHANNELS 3 Xrotation Yrotation Zrotation
				JOINT foot_1.r
				{
					OFFSET -0.940627 -0.441122 -12.211980
					CHANNELS 3 Xrotation Yrotation Zrotation
					JOINT foot_2.r
					{
						OFFSET 1.941922 -0.139302 -1.464783
						CHANNELS 3 Xrotation Yrotation Zrotation
						JOINT foot_2.r_end
						{
							OFFSET 2.544673 -0.283811 -0.481493
							CHANNELS 3 Xrotation Yrotation Zrotation
							End Site
							{
								OFFSET 2.544673 -0.283811 -0.481493
							}
						}
					}
				}
			}
		}
	}
}
MOTION
Frames: 4
Frame Time: 0.041667
-0.441017 0.000000 -3.484004 -0.000001 -0.143055 0.000003 -0.000001 11.731693 0.000001 2.113401 23.550178 0.276944 0.000001 -2.991254 -0.000001 -0.501582 -15.427789 0.452582 0.778249 -0.000000 4.437731 0.000000 0.000000 -0.000000 -0.000000 2.021426 -0.000000 0.000000 0.000003 0.000000 0.000000 -0.000001 0.000000 0.778249 -0.000000 4.437733 34.918260 -1.555017 -4.941436 -27.803041 -24.972198 -28.796730 -4.710829 -41.870883 9.702341 -29.441691 -14.703177 37.858598 -7.814026 3.117654 9.148839 -0.000004 0.000002 -0.000000 -0.000001 -0.000001 -0.000000 0.000002 -0.000005 -0.000001 -5.822994 -21.998243 20.133332 -0.000003 0.000006 0.000002 -0.000000 -0.000003 0.000001 -0.000002 0.000001 0.000003 0.000002 0.000000 -0.000000 -5.823001 -21.998228 20.133323 -0.000006 -0.000003 0.000000 -0.000003 -0.000001 -0.000001 0.000001 -0.000000 -0.000000 -0.000000 -0.000003 0.000000 -5.823001 -21.998240 20.133330 -0.000008 -0.000001 -0.000003 0.000006 0.000003 -0.000002 0.000002 -0.000002 0.000002 0.000002 0.000000 0.000000 -5.822998 -21.998233 20.133328 -0.000001 -0.000002 -0.000001 -0.000001 -0.000001 -0.000001 -0.000001 0.000003 -0.000002 -0.000002 0.000001 -0.000001 0.787371 0.000133 4.437729 -19.968505 -0.518682 2.945756 24.906640 -35.398217 40.214825 -9.249239 -39.415300 -39.278082 13.739667 -5.261297 -30.061257 14.418733 0.624907 -21.855682 -9.658968 -8.880657 -2.897911 0.000001 0.000002 -0.000000 0.000002 -0.000000 0.000000 9.389613 -6.058934 -35.278426 0.000003 -0.000006 0.000004 -0.000001 -0.000001 -0.000002 0.000001 -0.000000 -0.000002 -0.000000 -0.000004 -0.000001 9.389588 -6.058924 -35.278426 0.000006 0.000006 -0.000002 0.000002 -0.000003 -0.000002 0.000003 -0.000001 -0.000001 0.000000 0.000003 -0.000001 9.389603 -6.058929 -35.278419 0.000002 -0.000001 0.000000 -0.000001 0.000001 -0.000001 -0.000001 0.000009 0.000001 -0.000000 0.000002 0.000000 9.389610 -6.058928 -35.278419 0.000001 0.000006 0.000001 -0.000002 0.000002 0.000002 0.000003 -0.000004 -0.000000 -0.000001 -0.000002 -0.000000 -0.441017 0.000000 -3.484004 -0.000005 -7.174667 -0.000002 -0.000000 -25.915459 -0.000005 -0.000016 54.740671 0.000021 0.000000 -23.378006 -0.000005 -0.000000 -0.000002 0.000001 0.000000 -0.000000 0.000000 -0.435480 0.002287 -3.481980 0.000003 -7.174665 0.000003 0.000005 -25.915464 0.000002 -0.000005 54.740681 0.000009 0.000006 -23.378006 -0.000007 0.000000 -0.000003 0.000001 0.000000 0.000000 -0.000000 
-0.441020 0.000000 -3.645180 -0.000001 -0.137478 0.000003 -0.000000 11.691266 0.000001 2.113401 23.550181 0.276944 0.000001 -2.991250 -0.000001 -0.501582 -15.427791 0.452582 0.778250 -0.000000 4.437731 0.000000 0.000003 0.000000 -0.000000 2.021423 0.000000 0.000000 0.000004 0.000000 0.000000 -0.000000 -0.000000 0.778250 0.000001 4.437731 34.918260 -1.555017 -4.941434 -27.502846 -24.956400 -28.620839 -4.667760 -42.236114 9.466649 -29.289559 -15.001486 38.129449 -7.728458 3.201991 8.912565 -0.000004 0.000003 -0.000000 0.000001 -0.000001 -0.000001 0.000001 -0.000005 -0.000002 -5.808131 -21.931194 19.971929 -0.000003 0.000001 0.000002 -0.000000 0.000002 -0.000000 -0.000000 0.000000 0.000001 0.000002 -0.000003 0.000001 -5.847115 -21.929571 19.962905 -0.000003 0.000000 -0.000001 -0.000002 0.000004 0.000000 -0.000002 -0.000000 0.000002 -0.000002 -0.000001 -0.000000 -5.881040 -21.938096 19.968381 -0.000010 0.000002 0.000001 0.000006 0.000000 0.000000 0.000002 -0.000007 0.000002 -0.000000 -0.000002 0.000001 -5.900323 -21.949450 19.983839 0.000002 0.000002 -0.000003 -0.000001 -0.000000 -0.000002 0.000002 -0.000003 -0.000000 -0.000000 0.000001 -0.000001 0.787371 0.000133 4.437729 -19.968507 -0.518683 2.945756 24.460504 -35.430893 39.957471 -9.377641 -39.833311 -39.085160 13.691579 -5.535189 -30.274257 14.410780 0.652135 -21.863915 -9.658968 -8.880648 -2.897912 0.000001 -0.000001 -0.000000 0.000002 0.000001 -0.000007 9.387935 -6.058499 -35.277794 0.000001 -0.000007 0.000005 0.000000 -0.000000 -0.000001 0.000001 0.000004 -0.000000 -0.000000 -0.000001 0.000000 9.387912 -6.058491 -35.277790 0.000005 0.000000 -0.000004 0.000004 -0.000003 -0.000001 0.000002 -0.000005 0.000000 -0.000000 0.000004 0.000001 9.387924 -6.058499 -35.277790 -0.000002 0.000001 -0.000000 -0.000001 0.000001 -0.000001 0.000001 -0.000000 -0.000000 -0.000000 -0.000002 0.000000 9.385934 -6.053979 -35.284853 0.000002 -0.000000 0.000001 -0.000003 -0.000003 0.000001 0.000003 -0.000003 0.000000 0.000001 0.000003 0.000001 -0.441020 0.000000 -3.645180 -0.000004 -7.171243 -0.000003 0.000001 -26.537477 -0.000004 -0.000018 56.024951 0.000022 -0.005792 -23.800248 -0.011877 -0.000000 -0.000001 0.000000 -0.000000 0.000001 0.000000 -0.435474 0.002287 -3.643203 0.000004 -7.171238 0.000007 0.000007 -26.537479 0.000001 -0.000004 56.024968 0.000009 0.000006 -23.800564 -0.000003 -0.000000 -0.000002 0.000003 -0.000000 0.000000 -0.000001 
-0.441027 0.000000 -4.087115 -0.000001 -0.098430 0.000003 -0.000000 11.572554 0.000001 2.113401 23.550187 0.276944 0.000001 -2.991251 -0.000001 -0.501582 -15.427785 0.452582 0.778250 -0.000000 4.437729 -0.000000 0.000002 -0.000000 -0.000001 2.021430 -0.000000 0.000000 0.000005 0.000000 -0.000000 -0.000002 0.000000 0.778250 0.000001 4.437730 34.918253 -1.555019 -4.941436 -26.633471 -24.904538 -28.112531 -4.551160 -43.285057 8.803404 -28.849848 -15.850805 38.912206 -7.478705 3.444270 8.227499 -0.000004 -0.000003 0.000003 0.000004 -0.000002 -0.000000 -0.000000 -0.000005 -0.000003 -5.763863 -21.737202 19.505296 -0.000002 0.000005 -0.000000 -0.000001 0.000001 0.000000 -0.000001 0.000004 0.000002 0.000001 -0.000002 0.000001 -5.913228 -21.730390 19.470994 -0.000004 -0.000002 0.000003 -0.000004 -0.000001 0.000002 0.000002 0.000002 -0.000001 -0.000000 -0.000001 -0.000001 -6.043553 -21.762907 19.492168 -0.000009 0.000000 0.000004 0.000005 0.000002 -0.000000 0.000001 -0.000005 0.000001 0.000000 0.000002 -0.000000 -6.117810 -21.806542 19.551551 -0.000000 0.000002 0.000001 0.000000 -0.000004 0.000000 0.000000 -0.000006 -0.000001 -0.000001 0.000001 -0.000001 0.787372 0.000133 4.437729 -19.968505 -0.518681 2.945756 23.162814 -35.514648 39.208848 -9.741613 -41.028369 -38.546497 13.549483 -6.320851 -30.889957 14.381004 0.730766 -21.883305 -9.658967 -8.880649 -2.897910 0.000001 0.000003 -0.000004 -0.000002 0.000001 -0.000002 9.376355 -6.055685 -35.274181 0.000003 -0.000007 0.000004 0.000001 -0.000003 -0.000003 -0.000000 0.000004 0.000000 0.000001 -0.000001 -0.000002 9.376333 -6.055674 -35.274177 0.000004 0.000001 -0.000002 0.000002 -0.000002 -0.000000 0.000004 0.000000 0.000001 0.000000 -0.000002 -0.000001 9.376354 -6.055685 -35.274184 -0.000000 -0.000003 -0.000001 0.000001 -0.000001 -0.000002 -0.000000 0.000004 0.000001 0.000000 0.000001 0.000000 9.368571 -6.038402 -35.301590 0.000002 0.000007 -0.000001 -0.000001 0.000001 0.000000 0.000004 0.000001 0.000001 -0.000001 -0.000001 0.000000 -0.441027 0.000000 -4.087115 -0.000007 -7.147263 -0.000003 0.000002 -28.286977 -0.000005 -0.000020 59.581741 0.000026 -0.021402 -24.958799 -0.043126 -0.000000 0.000001 0.000001 0.000000 0.000001 -0.000000 -0.435459 0.002287 -4.085268 0.000004 -7.147259 0.000005 0.000004 -28.286974 0.000002 -0.000005 59.581762 0.000013 0.000005 -24.959929 -0.000004 0.000000 -0.000002 0.000003 -0.000000 -0.000001 -0.000000 
-0.441039 0.000000 -4.747419 -0.000001 0.007578 0.000003 0.000000 11.379441 0.000001 2.113401 23.550183 0.276944 0.000001 -2.991254 -0.000001 -0.501582 -15.427792 0.452582 0.778249 -0.000000 4.437729 0.000000 0.000000 0.000000 -0.000000 2.021424 -0.000000 0.000000 0.000002 0.000000 0.000000 -0.000000 -0.000000 0.778249 -0.000000 4.437731 34.918260 -1.555019 -4.941435 -25.240226 -24.804170 -27.300623 -4.390977 -44.944800 7.773479 -28.137127 -17.177883 40.169763 -7.072252 3.826483 7.126706 -0.000003 -0.000003 0.000001 0.000004 -0.000002 0.000001 -0.000002 -0.000005 -0.000007 -5.689294 -21.427024 18.759427 0.000000 0.000002 -0.000000 0.000000 0.000000 -0.000003 -0.000002 0.000005 -0.000001 0.000000 -0.000004 0.000001 -6.010558 -21.410329 18.686605 -0.000003 -0.000002 -0.000001 0.000001 0.000001 -0.000003 0.000001 0.000003 -0.000001 0.000000 -0.000003 0.000001 -6.291906 -21.479417 18.732905 -0.000010 -0.000003 0.000001 0.000004 0.000007 -0.000003 0.000002 -0.000005 -0.000000 0.000000 -0.000003 0.000001 -6.452778 -21.573453 18.861076 0.000003 0.000002 0.000001 -0.000001 -0.000001 -0.000000 0.000001 -0.000005 0.000000 -0.000001 0.000007 -0.000000 0.787371 0.000133 4.437729 -19.968505 -0.518682 2.945756 21.066438 -35.616961 37.998740 -10.303509 -42.911370 -37.723466 13.309856 -7.562925 -31.875950 14.320453 0.856263 -21.905805 -9.658966 -8.880652 -2.897917 0.000000 0.000000 -0.000004 0.000001 0.000001 -0.000003 9.345045 -6.048222 -35.265011 0.000003 -0.000006 0.000002 -0.000000 -0.000000 -0.000001 0.000000 0.000002 -0.000000 0.000001 0.000001 0.000000 9.345020 -6.048215 -35.265011 0.000003 0.000002 -0.000003 0.000002 -0.000003 -0.000001 0.000002 -0.000000 0.000000 -0.000000 -0.000000 0.000000 9.345037 -6.048217 -35.265015 0.000001 -0.000006 0.000001 0.000000 -0.000002 -0.000001 -0.000000 -0.000003 0.000001 0.000000 -0.000001 -0.000000 9.328009 -6.011047 -35.324738 0.000002 0.000005 0.000001 -0.000003 -0.000007 0.000001 0.000003 0.000006 0.000002 0.000001 -0.000003 -0.000000 -0.441039 0.000000 -4.747419 -0.000000 -7.082175 -0.000004 0.000001 -30.992352 -0.000006 -0.000029 64.982010 0.000034 -0.044506 -26.690337 -0.087467 -0.000000 -0.000005 -0.000000 0.000000 0.000001 -0.000000 -0.435436 0.002287 -4.745765 0.000002 -7.082172 0.000004 0.000004 -30.992359 0.000001 -0.000006 64.982030 0.000016 0.000010 -26.692610 -0.000004 -0.000000 -0.000002 0.000000 -0.000000 -0.000001 -0.000000 
